<svg width="14" viewBox="0 0 419 464" fill="none" xmlns="http://www.w3.org/2000/svg">
<path d="M60.3333 463.8H359C374.844 463.8 390.036 457.503 401.24 446.3C412.438 435.102 418.735 419.909 418.735 404.065V314.467H359V404.065H60.3333V314.467H0.598633V404.065C0.598633 419.909 6.89557 435.101 18.0933 446.3C29.2964 457.503 44.4893 463.8 60.3333 463.8V463.8Z" fill="white"/>
<path d="M179.8 0.866648V234.867L118.795 173.861L76.5347 216.121L188.535 328.121V328.127C194.139 333.736 201.738 336.887 209.665 336.887C217.593 336.887 225.192 333.736 230.796 328.127L342.796 216.127L300.536 173.867L239.531 234.867V0.866516L179.8 0.866648Z" fill="white"/>
</svg>
