<svg fill="none" width="12" viewBox="0 0 15 15"  xmlns="http://www.w3.org/2000/svg"><path d="m2.00019.00018755c-.17059 0-.34136.06497915-.47136.19531245l-1.33333 1.33333c-.2606667.26067-.2606667.68271 0 .94271l4.86198 4.86198-4.86198 4.86198c-.2606667.2607-.2606667.6827 0 .9427l1.33333 1.3333c.26067.2607.68271.2607.94271 0l4.86198-4.86194 4.86198 4.86194c.26.2607.6827.2607.9427 0l1.3333-1.3333c.2607-.2607.2607-.6827 0-.9427l-4.86194-4.86198 4.86194-4.86198c.2607-.26.2607-.68271 0-.94271l-1.3333-1.33333c-.2607-.2606667-.6827-.2606667-.9427 0l-4.86198 4.86198-4.86198-4.86198c-.13033-.1303333-.30077-.19531245-.47135-.19531245z" fill="currentColor"/></svg>