<svg xmlns="http://www.w3.org/2000/svg" width="24" height="24" fill="none" viewBox="0 0 24 24">
  <g clip-path="url(#a)">
    <path fill="#FCFCFC" d="M6 8v8a2 2 0 0 0 2 2h8a2 2 0 0 0 2-2V8a2 2 0 0 0-2-2H8a2 2 0 0 0-2 2Z" />
    <path fill="#0047FF" d="M15 13a1 1 0 1 0 0-2H9a1 1 0 1 0 0 2h6Z" />
    <path fill="#0047FF" d="M11 15a1 1 0 1 0 2 0V9a1 1 0 1 0-2 0v6Z" />
    <path
      stroke="#FCFCFC"
      stroke-linecap="round"
      stroke-miterlimit="10"
      stroke-width="2"
      d="M23 7c0-3.31-2.69-6-6-6M17 23c3.31 0 6-2.69 6-6M1 17c0 3.31 2.69 6 6 6M7 1C3.69 1 1 3.69 1 7"
    />
  </g>
  <defs>
    <clipPath id="a">
      <path fill="#fff" d="M0 0h24v24H0z" />
    </clipPath>
  </defs>
</svg>