<svg xmlns="http://www.w3.org/2000/svg" width="24" height="24" fill="none" viewBox="0 0 24 24">
  <g clip-path="url(#a)">
    <path
      fill="#fcfcfc"
      fill-rule="evenodd"
      d="M6 16V8a2 2 0 0 1 2-2h8a2 2 0 0 1 2 2v8a2 2 0 0 1-2 2h-3v-5.586l1.293 1.293a1 1 0 0 0 1.414-1.414l-3-3a1 1 0 0 0-1.414 0l-3 3a1 1 0 1 0 1.414 1.414L11 12.414V18H8a2 2 0 0 1-2-2Z"
      clip-rule="evenodd"
    />
    <path
      stroke="#fcfcfc"
      stroke-linecap="round"
      stroke-miterlimit="10"
      stroke-width="2"
      d="M23 7c0-3.31-2.69-6-6-6M17 23c3.31 0 6-2.69 6-6M1 17c0 3.31 2.69 6 6 6M7 1C3.69 1 1 3.69 1 7"
    />
  </g>
  <defs>
    <clipPath id="a">
      <path fill="#fcfcfc" d="M0 0h24v24H0z" />
    </clipPath>
  </defs>
</svg>